<?xml version="1.0" encoding="UTF-8"?>
<svg version="1.1" xmlns="http://www.w3.org/2000/svg" width="280" height="280">
<path d="M0 0 C92.4 0 184.8 0 280 0 C280 92.4 280 184.8 280 280 C187.6 280 95.2 280 0 280 C0 187.6 0 95.2 0 0 Z " fill="#000000" transform="translate(0,0)"/>
<path d="M0 0 C2.8125 1 2.8125 1 5 3 C6.21571291 7.12874807 6.60958001 9.52411494 4.9519043 13.53759766 C3.37575345 16.36695792 1.6925528 19.09056924 -0.0625 21.8125 C-1.22192784 23.67200884 -2.37948345 25.53268635 -3.53515625 27.39453125 C-4.39862671 28.77161255 -4.39862671 28.77161255 -5.27954102 30.17651367 C-8.0292979 34.68920537 -10.52057571 39.33486498 -13 44 C-20.9938455 58.9938455 -20.9938455 58.9938455 -26 64 C-28.92807534 64.28800741 -31.14997212 64.48146102 -34 64 C-37.14085974 61.40879072 -37.87107489 59.74490065 -38.5625 55.75 C-38.04589328 52.30595518 -37.53949086 50.86400999 -35.859375 47.96875 C-35.4063501 47.17823242 -34.9533252 46.38771484 -34.48657227 45.57324219 C-33.99600342 44.72407227 -33.50543457 43.87490234 -33 43 C-31.98110291 41.1833952 -30.96424584 39.36564499 -29.94921875 37.546875 C-24.15552805 27.23660693 -18.29324183 17.01338478 -12 7 C-11.49726562 6.10539062 -10.99453125 5.21078125 -10.4765625 4.2890625 C-7.65938274 -0.07831141 -4.90920941 -0.49092094 0 0 Z " fill="#C0F14D" transform="translate(82,121)"/>
<path d="M0 0 C2.62946893 0.87648964 3.67656602 1.53102074 5.25 3.8125 C6.37888961 7.10509468 6.65699448 9.55433986 5.17529297 12.81469727 C3.93942961 15.03608518 2.63933064 17.20669305 1.3125 19.375 C0.30313505 21.06678306 -0.70460465 22.75953658 -1.7109375 24.453125 C-2.51289551 25.79600586 -2.51289551 25.79600586 -3.33105469 27.16601562 C-6.79497926 33.04799872 -10.09080329 39.02747491 -13.40698242 44.99365234 C-22.31283942 60.87522628 -22.31283942 60.87522628 -27 64 C-31.03621805 64.61420709 -32.52111041 64.34355123 -35.875 61.9375 C-38 59 -38 59 -38.6875 55.8125 C-37.8717163 51.28860855 -36.15310504 48.45858445 -33.6875 44.62890625 C-32.12451756 42.19398222 -30.7342971 39.74022758 -29.375 37.1875 C-26.32209469 31.54204812 -23.1708132 25.95479501 -20 20.375 C-19.50161621 19.49223389 -19.00323242 18.60946777 -18.48974609 17.69995117 C-8.12459446 -0.48747567 -8.12459446 -0.48747567 0 0 Z " fill="#C1F24D" transform="translate(172,121)"/>
<path d="M0 0 C2.5625 1.4375 2.5625 1.4375 4 4 C4.53416833 12.27960915 0.38317972 18.15253217 -3.79663086 24.96948242 C-5.21246654 27.35850764 -6.53698691 29.78848343 -7.859375 32.23046875 C-10.99824289 38.02331861 -14.24545674 43.74500056 -17.5625 49.4375 C-18.11357422 50.40365234 -18.66464844 51.36980469 -19.23242188 52.36523438 C-24.47496482 61.33912461 -24.47496482 61.33912461 -29 64 C-33.02986043 64.08395543 -34.66320892 63.25625409 -37.875 60.8125 C-40 58 -40 58 -40.6875 55.3125 C-39.83314041 51.19604016 -38.0808212 48.40999856 -35.83203125 44.88671875 C-33.84142302 41.75013136 -32.01202496 38.54838095 -30.1875 35.3125 C-26.96299285 29.62398267 -23.62182923 24.01366661 -20.22875977 18.42431641 C-17.39681076 13.73384297 -14.78365962 8.95400083 -12.2890625 4.07421875 C-9.35410802 -0.64838982 -5.07049505 -0.78399221 0 0 Z " fill="#C1F24D" transform="translate(232,85)"/>
<path d="M0 0 C4.11594555 0.66149125 5.80471529 1.37716352 8.5 4.5625 C9.13525088 10.24523346 7.72578646 13.83197212 4.8125 18.5625 C3.98737504 19.96170558 3.16321664 21.36148144 2.33984375 22.76171875 C1.88722168 23.52145996 1.43459961 24.28120117 0.96826172 25.06396484 C-0.63981323 27.80041962 -2.19685804 30.56185352 -3.74609375 33.33203125 C-4.30530518 34.33169922 -4.8645166 35.33136719 -5.44067383 36.36132812 C-6.53353975 38.31673282 -7.62585782 40.27244384 -8.7175293 42.22851562 C-11.43424581 47.05335689 -14.21023301 51.8422929 -17.0859375 56.57421875 C-17.88717041 57.90199341 -17.88717041 57.90199341 -18.70458984 59.2565918 C-20.73606857 61.86569114 -22.52923833 63.13799783 -25.5 64.5625 C-29.41032112 64.5625 -30.98097805 64.01498068 -33.9375 61.4375 C-36.03059488 57.58620543 -35.45377301 55.8107275 -34.5 51.5625 C-33.34504275 48.91638099 -31.92092795 46.47401454 -30.4375 44 C-30.03337891 43.30455078 -29.62925781 42.60910156 -29.21289062 41.89257812 C-28.38190133 40.46338058 -27.54645509 39.03676505 -26.70654297 37.61279297 C-24.94111425 34.61277873 -23.22217349 31.5875653 -21.5 28.5625 C-20.85417969 27.43972656 -20.20835938 26.31695312 -19.54296875 25.16015625 C-18.0554229 22.55967879 -16.60824156 19.93980028 -15.17578125 17.30859375 C-14.78197266 16.59123047 -14.38816406 15.87386719 -13.98242188 15.13476562 C-13.22529526 13.75323074 -12.47483071 12.36801498 -11.73242188 10.97851562 C-8.89170401 5.81691552 -6.18447702 0.99393381 0 0 Z " fill="#C1F34D" transform="translate(137.5,84.4375)"/>
</svg>
